<svg
            class="logo-img"
            xmlns="http://www.w3.org/2000/svg"
            width="148.144"
            height="65.52"
            viewBox="0 0 148.144 65.52"
          >
            <g
              id="Group_2432"
              data-name="Group 2432"
              transform="translate(-203 -35)"
            >
              <path
                id="Path_258"
                data-name="Path 258"
                d="M0,133.125H8.35c7.147,0,10.426,2.547,10.426,8.091,0,5.686-3.185,8.3-9.884,8.3H0Zm8.8,13.847c4.93,0,7.006-1.746,7.006-5.756,0-3.868-2.17-5.543-7.336-5.543h-5.5v11.3Z"
                transform="translate(203 -49.421)"
                fill="#0064dc"
              />
              <path
                id="Path_259"
                data-name="Path 259"
                d="M70.068,133.311H83.277v2.524H73.04v4.1h9.435v2.524H73.04v4.741h10.4v2.5H70.068Z"
                transform="translate(158.567 -49.539)"
                fill="#0064dc"
              />
              <path
                id="Path_260"
                data-name="Path 260"
                d="M125.291,143.69h2.831c.142,2.382,1.6,3.232,4.977,3.232,3.02,0,4.411-.9,4.411-2.524,0-1.274-.778-1.982-2.571-2.241l-4.6-.708c-3.138-.472-4.529-1.793-4.529-4.293,0-3.138,2.453-4.812,7.029-4.812,4.695,0,6.935,1.628,7.265,5.26h-2.878c-.212-2-1.556-2.736-4.411-2.736-2.737,0-4.1.731-4.1,2.217,0,1.062.9,1.651,2.524,1.887l4.505.684c3.279.5,4.694,2.028,4.694,4.67,0,3.279-2.547,5.119-7.407,5.119-5.237,0-7.572-1.793-7.737-5.756"
                transform="translate(123.547 -48.926)"
                fill="#0064dc"
              />
              <rect
                id="Rectangle_67"
                data-name="Rectangle 67"
                width="2.972"
                height="16.394"
                transform="translate(270.89 83.772)"
                fill="#0064dc"
              />
              <path
                id="Path_261"
                data-name="Path 261"
                d="M232.634,140.648v.495c0,5.85-3.35,8.3-9.813,8.3-6.7,0-9.931-2.713-9.931-8.61,0-5.8,3.325-8.492,9.836-8.492,5.827,0,8.7,1.958,9.412,5.685h-2.973c-.637-2.123-2.359-3.161-6.3-3.161-4.695,0-7.006,1.6-7.006,5.968s1.981,6.086,7.006,6.086c4.387,0,6.581-1.156,6.816-3.751h-7.194v-2.524Z"
                transform="translate(67.995 -48.926)"
                fill="#0064dc"
              />
              <path
                id="Path_262"
                data-name="Path 262"
                d="M304.123,133.311v16.394h-5.308l-9.058-13.776h-.8v13.776h-2.972V133.311h5.307l9.082,13.8h.779v-13.8Z"
                transform="translate(21.643 -49.539)"
                fill="#0064dc"
              />
              <path
                id="Path_263"
                data-name="Path 263"
                d="M368.493,145.182h-9.435l-1.462,4.152h-3.019l5.756-16.394h6.935L373,149.334h-3.043Zm-.873-2.524-2.524-7.171h-2.619l-2.524,7.171Z"
                transform="translate(-21.854 -49.304)"
                fill="#0064dc"
              />
              <path
                id="Path_264"
                data-name="Path 264"
                d="M161.642,0H125.9v32.52h36.819c13.289,0,19.606-5.194,19.606-16.471,0-11-6.5-16.049-20.682-16.049"
                transform="translate(123.162 34.999)"
                fill="#0064dc"
              />
              <rect
                id="Rectangle_68"
                data-name="Rectangle 68"
                width="148.144"
                height="65.52"
                transform="translate(203 35)"
                fill="none"
              />
            </g>
          </svg>